<?xml version="1.0" encoding="UTF-8" standalone="no"?>
<svg
   xmlns:dc="http://purl.org/dc/elements/1.1/"
   xmlns:cc="http://creativecommons.org/ns#"
   xmlns:rdf="http://www.w3.org/1999/02/22-rdf-syntax-ns#"
   xmlns:svg="http://www.w3.org/2000/svg"
   xmlns="http://www.w3.org/2000/svg"
   xmlns:sodipodi="http://sodipodi.sourceforge.net/DTD/sodipodi-0.dtd"
   xmlns:inkscape="http://www.inkscape.org/namespaces/inkscape"
   version="1.1"
   id="Layer_2"
   x="0px"
   y="0px"
   viewBox="5 -10 63.549999 90.69953"
   enable-background="new 0 0 100 100"
   xml:space="preserve"
   height="67.184837"
   width="63.549999"
   inkscape:version="0.48.3.1 r9886"
   sodipodi:docname="logo.svg"><metadata
   id="metadata15"><rdf:RDF><cc:Work
       rdf:about=""><dc:format>image/svg+xml</dc:format><dc:type
         rdf:resource="http://purl.org/dc/dcmitype/StillImage" /></cc:Work></rdf:RDF></metadata><defs
   id="defs13" /><sodipodi:namedview
   pagecolor="#ffffff"
   bordercolor="#666666"
   borderopacity="1"
   objecttolerance="10"
   gridtolerance="10"
   guidetolerance="10"
   inkscape:pageopacity="0"
   inkscape:pageshadow="2"
   inkscape:window-width="640"
   inkscape:window-height="480"
   id="namedview11"
   showgrid="false"
   fit-margin-top="0"
   fit-margin-left="0"
   fit-margin-right="0"
   fit-margin-bottom="0"
   inkscape:zoom="2.36"
   inkscape:cx="25.553974"
   inkscape:cy="30.443904"
   inkscape:window-x="0"
   inkscape:window-y="0"
   inkscape:window-maximized="0"
   inkscape:current-layer="Layer_2" />
<path
   d="m 30.529865,-9.303744 c -0.238,-0.5 -0.783,-0.795 -1.338,-0.666 0.557,-0.128 1.1,0.166 1.338,0.666 z"
   id="path3"
   inkscape:connector-curvature="0"
   style="fill:#000000" />
<path
   d="m 69.777949,41.459425 c -0.2,-0.634 -0.754,-0.98 -1.389,-0.779 -0.067,0.02 -0.086,0 -0.086,0 v 0.017 c -4,0 -10.87,-15.857 -18.155,-42.5879996 0.08,0.311 -1.188,-4.3510001 -1.188,-4.3510001 -0.164,-0.631 -0.817,-1.014 -1.45,-0.869 l -36.565,8.519 c -0.034,0.008 -0.063,0.032 -0.096,0.043 -0.093,0.03 -0.179,0.069 -0.26,0.119 -0.049,0.03 -0.095,0.058 -0.139,0.095 -0.078,0.065 -0.142,0.141 -0.201,0.224 -0.022,0.031 -0.056,0.051 -0.076,0.084 -0.007,0.012 -0.007,0.027 -0.013,0.039 -0.056,0.103 -0.089,0.217 -0.113,0.336 -0.007,0.033 -0.024,0.064 -0.028,0.097 -10e-4,0.005 -0.004,0.009 -0.004,0.015 L 2.9509492,73.407425 c -0.066,0.66 0.417,1.249 1.077,1.315 0.669,0.058 1.249,-0.417 1.315,-1.078 l 6.3599998,-63.8779997 17.921,68.3179997 c 0.141,0.541 0.629,0.899 1.163,0.899 0.1,0 0.202,-0.013 0.303,-0.039 0.643,-0.167 1.028,-0.824 0.86,-1.466 l -3.927,-15.088 12.118,-3.841 -0.631,6.342 c -0.066,0.66 0.417,1.249 1.077,1.315 0.668,0.06 1.249,-0.417 1.315,-1.078 l 0.734,-7.37 18.912,-5.995 4.636,17.809 c 0.141,0.541 0.629,0.899 1.163,0.899 0.1,0 0.202,-0.013 0.303,-0.039 0.643,-0.167 1.061,-0.824 0.894,-1.466 l -6.241,-24.101 v 0.131 l 6.689,-2.036 c 10e-4,0 0.002,0 0.004,0 0.633,0 0.983,-0.869 0.782,-1.501 z m -57.056,-37.9969997 34.178,-7.965 0.528,2.0400001 -33.999,8.3409999 -0.707,-2.416 z m 14.695,56.5979997 -3.809,-14.405 c 2.715,5.402 5.6,9.305 8.437,9.305 10e-4,0 10e-4,0 10e-4,0 0.38,0 0.759,-0.425 1.126,-0.541 l 26.693,-8.68 0.997,3.775 -33.445,10.546 z m 5.03,-8.02 c -0.134,0.042 -0.265,0.062 -0.401,0.062 -5.192,-10e-4 -13.259,-23.959 -18.236,-43.8419997 l 34.263,-8.40599999 c 3.431,12.21999969 10.731,35.86799969 17.082,41.81599969 l -32.708,10.37 z"
   id="path5"
   inkscape:connector-curvature="0"
   style="fill:#000000" />
</svg>